<svg width="512" height="512" viewBox="0 0 512 512" xmlns="http://www.w3.org/2000/svg">
  <defs>
    <linearGradient id="bg" x1="0%" y1="0%" x2="100%" y2="100%">
      <stop offset="0%" stop-color="#3b82f6"/>
      <stop offset="100%" stop-color="#8b5cf6"/>
    </linearGradient>
    <clipPath id="circle-clip">
      <circle cx="256" cy="256" r="256"/>
    </clipPath>
  </defs>

  <circle cx="256" cy="256" r="256" fill="url(#bg)"/>

  <g clip-path="url(#circle-clip)" fill="none" stroke="white" stroke-width="17" stroke-linecap="round" stroke-linejoin="round">
    <!-- chat bubble -->
    <path d="M110 205 Q110 145 160 145 L352 145 Q402 145 402 205 L402 300 Q402 360 352 360 L286 360 L256 408 L226 360 L160 360 Q110 360 110 300 Z"/>
    <!-- plug prongs -->
    <line x1="220" y1="95" x2="220" y2="145"/>
    <line x1="292" y1="95" x2="292" y2="145"/>
    <!-- plug body -->
    <rect x="192" y="178" width="128" height="108" rx="20"/>
    <!-- eyes -->
    <circle cx="232" cy="232" r="12" fill="white" stroke="none"/>
    <circle cx="280" cy="232" r="12" fill="white" stroke="none"/>
    <!-- connector -->
    <line x1="256" y1="286" x2="256" y2="360"/>
  </g>
</svg>
